<?xml version="1.0" encoding="iso-8859-1"?>
<!-- Generator: Adobe Illustrator 19.0.0, SVG Export Plug-In . SVG Version: 6.00 Build 0)  -->
<svg version="1.1" id="Layer_1" xmlns="http://www.w3.org/2000/svg" xmlns:xlink="http://www.w3.org/1999/xlink" x="0px"
  y="0px" viewBox="0 0 512 512" style="enable-background:new 0 0 512 512;" fill="#e23243" xml:space="preserve">
  <g>
    <g>
      <path d="M470.962,160.72c-12.985-25.251-30.596-48.27-51.603-67.6h31.554V0h-197.84v209.476h93.12v-56.42
			c36.676,28.009,58.142,70.866,58.142,117.489c0,81.793-66.543,148.336-148.336,148.336s-148.336-66.543-148.336-148.336
			c0-15.039,2.218-29.828,6.59-43.956l3.507-11.33H20.785l-1.414,7.016c-3.203,15.89-4.827,32.13-4.827,48.27
			c0,64.519,25.109,125.161,70.702,170.754C130.838,486.891,191.48,512,255.999,512s125.16-25.11,170.756-70.703
			c45.593-45.593,70.702-106.235,70.702-170.754C497.457,231.858,488.542,194.907,470.962,160.72z M414.386,428.93
			c-42.29,42.29-98.54,65.58-158.387,65.58c-59.847,0-116.097-23.29-158.387-65.58c-42.29-42.29-65.58-98.539-65.58-158.387
			c0-12.614,1.069-25.297,3.182-37.797v0.001H94.48c-2.861,12.308-4.307,24.975-4.307,37.797
			c0,91.436,74.389,165.824,165.824,165.824c91.436,0,165.824-74.388,165.824-165.824c0-28.954-7.611-57.443-22.013-82.389
			c-13.922-24.118-33.914-44.561-57.811-59.121l-13.294-8.1v71.05h-58.143V17.489h162.862v58.143h-64.569l21.07,15.748
			c27.325,20.423,49.968,47.167,65.484,77.338c16.295,31.689,24.557,65.949,24.557,101.827
			C479.966,330.391,456.675,386.641,414.386,428.93z" />
    </g>
  </g>
  <g>
    <g>
      <rect x="287.977" y="43.65" width="17.489" height="81.449" />
    </g>
  </g>
  <g>
    <g>
      <rect x="287.977" y="142.555" width="17.489" height="23.27" />
    </g>
  </g>
  <g>
  </g>
  <g>
  </g>
  <g>
  </g>
  <g>
  </g>
  <g>
  </g>
  <g>
  </g>
  <g>
  </g>
  <g>
  </g>
  <g>
  </g>
  <g>
  </g>
  <g>
  </g>
  <g>
  </g>
  <g>
  </g>
  <g>
  </g>
  <g>
  </g>
</svg>